<svg width="200" height="168" viewBox="0 0 200 168" fill="none" xmlns="http://www.w3.org/2000/svg">
<g clip-path="url(#clip0)">
<mask id="path-1-inside-1" fill="white">
<rect width="116.859" height="67.0865" rx="4" transform="matrix(-1 0 0 1 116.859 2.14368)"/>
</mask>
<rect width="116.859" height="67.0865" rx="4" transform="matrix(-1 0 0 1 116.859 2.14368)" fill="#D6DBFF" stroke="#F1F1F1" stroke-width="12" mask="url(#path-1-inside-1)"/>
<path d="M38.2371 6.87415V64.0697" stroke="#F0F0F0" stroke-width="4"/>
<path d="M81.2001 6.87415V64.0697" stroke="#F0F0F0" stroke-width="4"/>
<path d="M137.568 19.0417C135.472 21.7342 131.734 28.5952 134.04 30.3936C136.345 32.1919 144.939 27.7653 147.035 25.0728C149.131 22.3804 148.961 18.7399 146.656 16.9416C144.35 15.1432 139.664 16.3493 137.568 19.0417Z" fill="#D1AB85"/>
<rect width="8.0663" height="18.6637" transform="matrix(-0.889628 -0.456687 -0.455995 0.889982 147.901 29.4105)" fill="#D1AB85"/>
<rect width="15.4667" height="8.60083" transform="matrix(-1 0 0 1 102.252 14.1848)" fill="#F39229"/>
<path d="M139.621 113.873C140.738 96.7623 136.026 85.0797 133.531 81.3772L118.686 79.6047C118.094 86.5765 116.682 102.245 115.768 109.146C114.855 116.047 126.256 136.901 131.754 146H148.882C147.402 142.691 142.971 130.888 139.621 113.873Z" fill="#DB7B33"/>
<path d="M111.696 113.522C111.696 105.254 116.644 86.3594 119.118 78.5988L130.314 79.4303C131.992 82.004 133.032 89.0757 134.34 94.8725C135.975 102.118 133.082 118.63 129.937 124.45C127.421 129.107 127.379 140.724 127.673 145.95H117.106C115.302 146.188 111.948 145.689 112.954 141.793C114.212 136.923 111.696 123.856 111.696 113.522Z" fill="#F39E42"/>
<path d="M95.9844 26.4835C95.7828 29.5107 100.689 36.574 103.167 39.7273V45.5294C101.823 45.4453 98.8827 45.1005 97.8746 44.3942C96.6145 43.5113 93.0862 28.5016 93.0862 26.9881C93.0862 25.4745 91.7001 21.5644 91.9521 20.3031C92.2041 19.0418 93.0862 19.9247 95.4804 20.3031C95.0772 18.9913 95.3124 16.9816 95.4804 16.1407C95.9844 17.318 97.0429 19.9247 97.2445 20.9337C97.4966 22.1951 97.8746 23.4564 95.9844 26.4835Z" fill="#D1AB85"/>
<path d="M151.177 107.586C152.084 104.862 156.008 90.2219 157.856 83.2426L153.319 79.2064C152.605 80.2155 150.925 82.6877 149.917 84.5039C148.657 86.7743 148.531 106.199 147.649 107.586C146.313 109.687 149.917 111.37 151.177 107.586Z" fill="#D1AB85"/>
<path d="M146.409 114.332C145.604 113.754 147.113 110.358 147.16 109.463C147.303 106.771 150.039 104.301 150.258 106.771C150.421 108.609 157.338 110.132 157.57 111.527C157.801 112.922 156.423 113.162 154.608 113.335C152.794 113.507 150.011 111.264 149.07 111.571C148.128 111.879 147.213 114.91 146.409 114.332Z" fill="#D1AB85"/>
<path d="M144.12 76.5576C145.532 73.1269 144.709 61.1696 144.12 55.6198L144.625 47.4213C148.069 48.9348 155.361 52.8701 156.974 56.5027C158.587 60.1353 158.738 76.1792 158.612 83.7471C154.831 82.8222 146.641 80.0893 144.12 76.5576Z" fill="#0D34C7"/>
<path d="M133.41 40.358C134.014 41.0644 141.138 41.6614 144.625 41.8716C146.515 44.4363 150.219 50.4233 149.917 53.8541C149.539 58.1426 137.064 68.7376 136.56 69.9989C136.056 71.2602 138.954 71.1341 138.828 73.2783C138.702 75.4226 135.678 73.5306 135.3 74.918C134.922 76.3055 136.938 77.0623 136.56 78.5759C136.182 80.0894 134.544 82.8643 118.54 79.3327C125.849 59.9084 121.313 53.4757 120.809 54.9893C120.304 56.5028 113.122 57.0074 111.232 57.0074C109.72 57.0074 103.629 60.2027 100.773 61.8004C100.395 60.1607 99.5883 55.6704 99.3867 50.8269C99.1347 44.7726 103.671 37.8354 105.057 38.9706C106.443 40.1058 132.654 39.4751 133.41 40.358Z" fill="#1E4FF5"/>
<path d="M149.539 19.0417C149.035 14.0974 143.616 15.2998 140.97 16.5191C136.182 19.6724 139.08 27.0851 139.458 27.1142C140.051 27.1802 140.58 25.9697 140.954 25.0166L141.527 24.2131C141.602 27.1374 141.138 29.9732 138.828 32.2856C135.552 35.565 141.978 43.6374 141.726 47.9259C141.474 52.2143 145.507 60.0345 154.075 61.6742C162.644 63.3139 167.559 52.0882 170.079 47.9259C172.599 43.7635 170.079 38.466 160.376 35.0604C169.197 23.3302 156.848 17.9066 149.539 19.0417Z" fill="#522C2C"/>
<rect width="17.0993" height="8.54964" transform="matrix(-1 0 0 1 73.6719 28.5039)" fill="white"/>
<rect width="17.0993" height="8.54964" transform="matrix(-1 0 0 1 62.5574 44.7482)" fill="#1E4FF5"/>
<rect width="11.9695" height="5.98475" transform="matrix(-1 0 0 1 33.4886 11.4047)" fill="#1E4FF5"/>
<rect width="15.4667" height="8.60084" transform="matrix(-1 0 0 1 26.637 25.366)" fill="#F39229"/>
</g>
<defs>
<clipPath id="clip0">
<rect width="200" height="168" fill="white" transform="matrix(-1 0 0 1 200 0)"/>
</clipPath>
</defs>
</svg>
