<svg width="16" height="22" viewBox="0 0 16 22" fill="none" xmlns="http://www.w3.org/2000/svg">
<path d="M14.2816 9.16731H13.8919V7.20426C13.8919 3.57346 11.2149 0.540437 7.86883 0.475692C7.77741 0.473923 7.59472 0.473923 7.50334 0.475692C4.15723 0.540437 1.4802 3.57346 1.4802 7.20426V9.16731H1.09045C0.489879 9.16731 0 9.83431 0 10.6581V20.5039C0 21.3268 0.489879 22 1.0905 22H14.2816C14.8822 22 15.3721 21.3268 15.3721 20.5039V10.6581C15.3721 9.83435 14.8823 9.16731 14.2816 9.16731ZM8.9219 15.571V18.546C8.9219 18.8867 8.65691 19.175 8.34014 19.175H7.03207C6.71527 19.175 6.45027 18.8867 6.45027 18.546V15.571C6.14304 15.2455 5.96418 14.7954 5.96418 14.2976C5.96418 13.3541 6.6418 12.5433 7.50338 12.5059C7.59468 12.5019 7.77757 12.5019 7.86888 12.5059C8.73046 12.5433 9.40808 13.3541 9.40808 14.2976C9.40799 14.7954 9.22913 15.2455 8.9219 15.571ZM11.3234 9.16731H7.86883H7.50334H4.04879V7.20426C4.04879 5.04145 5.68188 3.25314 7.68606 3.25314C9.69024 3.25314 11.3234 5.04145 11.3234 7.20426V9.16731H11.3234Z" fill="white"/>
</svg>
